<svg width="178" height="79" viewBox="0 0 178 79" fill="none" xmlns="http://www.w3.org/2000/svg">
<path d="M151.128 44.5539H171.83C172.493 44.5539 173.034 43.9831 172.998 43.2811C172.375 31.0434 162.822 21.3238 151.128 21.3238C139.031 21.3238 129.225 31.7243 129.225 44.5539C129.225 57.3835 139.031 67.7839 151.128 67.7839H160.577M144.605 5H158.211" stroke="white" stroke-width="9.84417" stroke-linecap="round"/>
<path d="M5.00001 67.7837L5 38.5895C5.19718 33.8807 7.95775 19.4404 25.1127 21.6378" stroke="white" stroke-width="9.84417" stroke-linecap="round"/>
<path d="M97.8731 21.4119L97.873 50.6061C98.0702 55.3149 100.831 69.7552 117.986 67.5578" stroke="white" stroke-width="9.84417" stroke-linecap="round"/>
<path d="M80.5288 44.5539C80.5288 58.0661 70.2776 68.5125 58.2396 68.5125C46.2016 68.5125 35.9504 58.0661 35.9504 44.5539C35.9504 31.0418 46.2016 20.5954 58.2396 20.5954C70.2776 20.5954 80.5288 31.0418 80.5288 44.5539Z" stroke="white" stroke-width="9.84417"/>
<path d="M41.8848 62.4473L31.1515 73.839" stroke="white" stroke-width="9.84417" stroke-linecap="round"/>
</svg>
