<svg width="25" height="20" viewBox="0 0 25 20" fill="none" xmlns="http://www.w3.org/2000/svg">
<path d="M25 7.5V2.5C25 1.1125 23.875 0 22.5 0H2.5C1.125 0 0 1.1125 0 2.5V7.5C1.3875 7.5 2.5 8.625 2.5 10C2.5 11.375 1.3875 12.5 0 12.5V17.5C0 18.875 1.125 20 2.5 20H22.5C23.875 20 25 18.875 25 17.5V12.5C23.625 12.5 22.5 11.375 22.5 10C22.5 8.625 23.625 7.5 25 7.5ZM22.5 5.675C21.0125 6.5375 20 8.1625 20 10C20 11.8375 21.0125 13.4625 22.5 14.325V17.5H2.5V14.325C3.9875 13.4625 5 11.8375 5 10C5 8.125 4 6.5375 2.5 5.675V2.5H22.5V5.675ZM11.25 13.75H13.75V16.25H11.25V13.75ZM11.25 8.75H13.75V11.25H11.25V8.75ZM11.25 3.75H13.75V6.25H11.25V3.75Z" fill="#FAC3FF"/>
</svg>
